<svg width="160" height="160" viewBox="0 0 160 160" fill="none" xmlns="http://www.w3.org/2000/svg">
<rect width="160" height="160" rx="80" fill="#1E194F" fill-opacity="0.25"/>
<circle cx="104" cy="108" r="26" stroke="#9A4B9C" stroke-opacity="0.5" stroke-width="2"/>
<circle cx="97" cy="102" r="27" fill="#9A4B9C" fill-opacity="0.5"/>
<path d="M113.294 64.2814L106.404 52.3453C105.5 50.7782 104.215 49.4653 102.667 48.5289C101.12 47.5924 99.3601 47.0628 97.5527 46.9894C95.7453 46.9161 93.9487 47.3013 92.3303 48.1093C90.7119 48.9172 89.3243 50.1216 88.2967 51.6103L82.4243 41.4313C81.4954 39.8227 80.1644 38.4831 78.5617 37.5438C76.9591 36.6046 75.1399 36.098 73.2824 36.0737C71.425 36.0494 69.5932 36.5082 67.9665 37.4051C66.3398 38.3021 64.9741 39.6064 64.0034 41.1901C62.1075 39.4833 59.6651 38.5085 57.115 38.4411C54.5648 38.3737 52.0743 39.2179 50.0908 40.8222C48.1074 42.4265 46.7612 44.6856 46.2941 47.1934C45.827 49.7013 46.2696 52.2936 47.5425 54.5043L48.8211 56.7208C47.0178 56.8658 45.2805 57.4647 43.7711 58.462C42.2617 59.4592 41.0293 60.8222 40.1886 62.4241C39.3479 64.026 38.9263 65.8146 38.9632 67.6233C39 69.432 39.494 71.202 40.3992 72.7683L54.9461 97.9651C57.1489 101.803 60.0908 105.166 63.6016 107.86C67.1123 110.554 71.1224 112.526 75.3997 113.66C78.2617 114.425 81.2115 114.811 84.1738 114.809C90.0821 114.799 95.8839 113.235 100.997 110.275C106.11 107.315 110.355 103.062 113.305 97.9428C116.255 92.8238 117.807 87.0189 117.805 81.1107C117.804 75.2024 116.248 69.3985 113.294 64.2814ZM110.741 88.2569C109.33 93.5226 106.39 98.2517 102.291 101.846C98.193 105.441 93.1207 107.739 87.716 108.451C82.3113 109.163 76.8169 108.256 71.9277 105.845C67.0384 103.434 62.9739 99.6273 60.248 94.9064L45.7011 69.7097C45.3995 69.1871 45.2038 68.6102 45.1251 68.012C45.0464 67.4138 45.0863 66.8059 45.2425 66.2231C45.558 65.0461 46.3282 64.0426 47.3836 63.4335C48.439 62.8243 49.6931 62.6593 50.8702 62.9748C51.453 63.1311 51.9993 63.4006 52.4779 63.7679C52.9566 64.1353 53.3582 64.5933 53.6598 65.1159L62.0817 79.7011C62.2768 80.0605 62.542 80.3771 62.8615 80.6324C63.181 80.8876 63.5485 81.0763 63.9421 81.1873C64.3357 81.2982 64.7476 81.3292 65.1533 81.2784C65.5591 81.2276 65.9506 81.0961 66.3048 80.8915C66.6589 80.687 66.9685 80.4136 67.2152 80.0875C67.462 79.7613 67.6409 79.3891 67.7415 78.9927C67.842 78.5963 67.8622 78.1837 67.8007 77.7794C67.7393 77.3751 67.5974 76.9872 67.3836 76.6386L52.8368 51.4457C52.3825 50.6588 52.1718 49.7549 52.2313 48.8483C52.2908 47.9416 52.6179 47.073 53.171 46.3522C53.7242 45.6315 54.4787 45.0909 55.3391 44.799C56.1995 44.507 57.1271 44.4767 58.0047 44.712C58.5885 44.866 59.1358 45.1345 59.6149 45.5018C60.094 45.8692 60.4953 46.3281 60.7954 46.8519L73.8111 69.3958C74.2284 70.0762 74.8949 70.5669 75.6687 70.7632C76.4424 70.9594 77.2623 70.8458 77.9535 70.4466C78.6447 70.0473 79.1527 69.3939 79.3693 68.6256C79.5859 67.8573 79.4939 67.0348 79.113 66.3333L69.1599 49.1067C68.577 48.0534 68.4308 46.8134 68.7529 45.6534C69.0749 44.4935 69.8395 43.5063 70.882 42.9043C71.9244 42.3023 73.1616 42.1335 74.3272 42.4344C75.4928 42.7352 76.4938 43.4816 77.1147 44.5129L90.249 67.2597C86.9054 70.0299 84.6489 73.8931 83.8783 78.1663C83.1078 82.4395 83.8728 86.8475 86.0381 90.6112C86.4442 91.3148 87.1132 91.8283 87.8979 92.0386C88.6825 92.249 89.5186 92.139 90.2222 91.7329C90.9258 91.3268 91.4393 90.6578 91.6496 89.8731C91.86 89.0884 91.75 88.2523 91.3439 87.5487C89.7197 84.7353 89.2795 81.392 90.1201 78.2541C90.9608 75.1161 93.0135 72.4406 95.8266 70.816C96.175 70.615 96.4805 70.3473 96.7254 70.0282C96.9704 69.7091 97.1501 69.3448 97.2542 68.9563C97.3584 68.5677 97.385 68.1625 97.3325 67.7636C97.28 67.3648 97.1494 66.9802 96.9482 66.6318L93.1201 60.0015C92.5372 58.9482 92.3911 57.7082 92.7131 56.5483C93.0352 55.3883 93.7997 54.4011 94.8422 53.7991C95.8847 53.1971 97.1218 53.0284 98.2874 53.3292C99.4531 53.6301 100.454 54.3765 101.075 55.4078L107.966 67.3439C109.788 70.4722 110.972 73.9312 111.449 77.5204C111.925 81.1095 111.684 84.7576 110.741 88.2531V88.2569ZM99.5399 37.4577C99.6438 37.069 99.8234 36.7047 100.068 36.3854C100.313 36.0662 100.618 35.7983 100.967 35.5971C101.315 35.3958 101.7 35.2652 102.099 35.2127C102.498 35.1602 102.903 35.1868 103.291 35.291C109.382 36.9256 114.393 40.6925 117.402 45.9064C117.808 46.61 117.918 47.4461 117.708 48.2308C117.497 49.0154 116.984 49.6844 116.28 50.0905C115.577 50.4966 114.741 50.6066 113.956 50.3963C113.171 50.1859 112.502 49.6725 112.096 48.9689C109.906 45.1714 106.216 42.4151 101.707 41.2093C101.318 41.1053 100.954 40.9258 100.634 40.681C100.315 40.4361 100.047 40.1308 99.8459 39.7824C99.6447 39.434 99.5141 39.0494 99.4616 38.6505C99.4091 38.2516 99.4357 37.8463 99.5399 37.4577ZM59.9724 116.727C59.7234 117.043 59.4145 117.307 59.0635 117.503C58.7125 117.7 58.3261 117.826 57.9265 117.873C57.5269 117.92 57.1219 117.888 56.7346 117.779C56.3474 117.67 55.9855 117.485 55.6696 117.236C51.4586 113.909 47.9712 109.74 44.7211 104.113C44.315 103.409 44.205 102.573 44.4154 101.789C44.6257 101.004 45.1392 100.335 45.8428 99.9289C46.5464 99.5228 47.3825 99.4128 48.1671 99.6231C48.9518 99.8335 49.6208 100.347 50.0269 101.051C52.875 105.981 55.8725 109.595 59.4632 112.428C60.1005 112.931 60.5121 113.666 60.6076 114.472C60.7031 115.278 60.4746 116.089 59.9724 116.727Z" fill="#1E194F"/>
<rect x="1" y="1" width="158" height="158" rx="79" stroke="#1E194F" stroke-opacity="0.15" stroke-width="2"/>
</svg>
