<svg width="185" height="31" viewBox="0 0 185 31" fill="none" xmlns="http://www.w3.org/2000/svg">
<g clip-path="url(#clip0_3994_15087)">
<path d="M10.5563 10.8262H11.2738C13.8087 10.8262 16.1523 11.8978 18.3046 14.041C20.4729 11.8978 22.8006 10.8262 25.3196 10.8262H26.053C28.572 10.8262 30.8996 11.8818 33.0519 13.993C34.3114 15.4805 35.0926 16.904 35.4115 18.2635C35.6188 19.0952 35.7304 19.783 35.7304 20.3268V30.915C35.7304 30.979 35.6985 30.995 35.6507 30.995H30.5011C30.4373 30.995 30.3895 30.963 30.3895 30.915V20.9986C30.3895 18.8073 29.2894 17.2559 27.0892 16.3762C26.6588 16.2642 26.2921 16.2003 25.9732 16.2003H25.766C25.7341 16.2003 25.7181 16.1843 25.7181 16.1523L25.6384 16.2003H25.4312C23.9166 16.2003 22.6252 17.016 21.5411 18.6314C21.1744 19.3671 20.999 20.1988 20.999 21.1105V30.8991C20.999 30.963 20.9671 30.979 20.9193 30.979H15.7219C15.6581 30.979 15.6422 30.947 15.6422 30.8991V20.7746C15.6422 19.0792 14.7972 17.7197 13.0913 16.6801C12.3898 16.3602 11.768 16.2003 11.21 16.2003H11.0027C10.9708 16.2003 10.9549 16.1843 10.9549 16.1523L10.8752 16.2003H10.6679C9.10551 16.2003 7.79818 17.032 6.74594 18.6794C6.36331 19.3032 6.18794 20.3588 6.18794 21.8463V30.8991C6.18794 30.963 6.15605 30.979 6.10822 30.979H0.958621C0.894849 30.979 0.878906 30.947 0.878906 30.8991V20.5667C0.878906 17.8797 2.04275 15.4325 4.37043 13.2093C6.3952 11.6259 8.45185 10.8262 10.5563 10.8262Z" fill="#1E194F"/>
<path d="M47.4004 10.7461H48.1178C50.7165 10.7461 53.0921 11.8497 55.2603 14.0409C56.9981 16.0722 57.875 18.3114 57.875 20.7425V20.8705L53.1718 25.6368H57.7952C57.8431 25.6368 57.875 25.6688 57.875 25.7168V30.8989C57.875 30.9629 57.8431 30.9789 57.7952 30.9789H47.7033C44.4828 30.9789 41.7725 29.5714 39.5883 26.7404C38.3288 24.9491 37.707 22.9818 37.707 20.8225V20.4866C37.707 17.9595 38.7912 15.5764 40.9435 13.3692C43.032 11.6098 45.1843 10.7461 47.4004 10.7461ZM43.0798 20.9025C43.0798 22.5499 43.8451 23.8774 45.3597 24.8851C45.6626 25.077 45.8699 25.173 45.9815 25.173L52.0876 18.9992C51.6891 17.9435 50.9079 17.1278 49.7918 16.568C49.1701 16.2801 48.5961 16.1202 48.0381 16.1202H47.5279C46.4279 16.1202 45.3916 16.6 44.4031 17.5437C43.5262 18.5033 43.0798 19.6229 43.0798 20.9025Z" fill="#1E194F"/>
<path d="M69.6403 10.7461H70.3577C72.9565 10.7461 75.332 11.8497 77.5002 14.0409C79.238 16.0722 80.1149 18.3114 80.1149 20.7425V30.8989C80.1149 30.9629 80.083 30.9789 80.0352 30.9789H74.8218C74.758 30.9789 74.7421 30.9469 74.7421 30.8989V20.7425C74.7421 19.0312 73.8812 17.6556 72.1752 16.632C71.4738 16.3121 70.852 16.1522 70.294 16.1522H70.0867C70.0548 16.1522 70.0389 16.1362 70.0389 16.1042L69.9592 16.1522H69.7838C68.2054 16.1522 66.8981 16.9839 65.8459 18.6473C65.4632 19.2551 65.2879 20.3107 65.2879 21.8142V30.8989C65.2879 30.9629 65.256 30.9789 65.2081 30.9789H60.0426C59.9788 30.9789 59.9629 30.9469 59.9629 30.8989V20.5186C59.9629 17.9755 61.0311 15.5924 63.1674 13.4011C65.24 11.6258 67.4083 10.7461 69.6403 10.7461Z" fill="#1E194F"/>
<path d="M82.2357 0.845703H87.3693C87.4171 0.861697 87.449 0.893686 87.449 0.925675V10.8741H93.6827C93.7306 10.8901 93.7625 10.9221 93.7625 10.9541V16.1683C93.7625 16.2323 93.7306 16.2482 93.6827 16.2482H87.449V20.0709C87.449 21.7503 87.736 22.9339 88.3099 23.6056C89.2346 24.9811 90.6536 25.6689 92.5667 25.6689H93.6987C93.7465 25.6689 93.7784 25.7009 93.7784 25.7489V30.899C93.7784 30.963 93.7465 30.979 93.6987 30.979H91.7536C89.4578 30.979 87.2736 30.0354 85.1851 28.164C83.1763 26.0368 82.1719 23.7496 82.1719 21.3184V0.94167C82.1719 0.877693 82.1878 0.845703 82.2357 0.845703Z" fill="#1E194F"/>
<path d="M105.767 10.3779H106.501C109.131 10.3779 111.555 11.4975 113.771 13.7367C115.54 15.816 116.433 18.0712 116.433 20.5343V20.7263C116.433 24.197 114.903 27.044 111.826 29.2672C110.088 30.4028 108.206 30.9626 106.214 30.9626H106.022C103.487 30.9626 101.176 30.035 99.1189 28.1636C96.9666 25.9724 95.8984 23.5892 95.8984 20.9982V20.2624C95.8984 17.6873 96.9985 15.2722 99.1986 13.017C101.319 11.2736 103.519 10.3779 105.767 10.3779ZM106.054 15.88H105.895C104.3 15.88 102.977 16.7277 101.893 18.4071C101.51 19.2548 101.335 20.0065 101.335 20.6783C101.335 22.5656 102.26 24.0211 104.125 25.0447C104.795 25.3326 105.432 25.4926 106.022 25.4926H106.245C108.015 25.4926 109.402 24.6129 110.407 22.8695C110.757 22.1977 110.933 21.51 110.933 20.7902V20.5663C110.933 18.8229 110.056 17.4314 108.318 16.3918C107.601 16.0719 106.979 15.912 106.421 15.912H106.214C106.182 15.912 106.166 15.896 106.166 15.864L106.054 15.88Z" fill="#1E194F"/>
<path d="M127.834 10.5381H134.067C134.115 10.5541 134.147 10.5861 134.147 10.6181V15.8642C134.147 15.9282 134.115 15.9442 134.067 15.9442H129.093C127.18 15.9442 125.873 16.344 125.155 17.1278C124.597 17.5596 124.183 18.0874 123.928 18.6792C123.609 19.271 123.449 20.2466 123.449 21.6222V30.8989C123.449 30.9628 123.417 30.9788 123.37 30.9788H118.14C118.076 30.9788 118.061 30.9469 118.061 30.8989V20.3586C118.061 17.8155 119.161 15.4164 121.345 13.1772C123.433 11.4178 125.602 10.5381 127.834 10.5381Z" fill="#1E194F"/>
<path d="M136.363 0.845703H141.497C141.544 0.861697 141.576 0.893686 141.576 0.925675V20.0709C141.576 21.7503 141.863 22.9339 142.437 23.6056C143.362 24.9811 144.781 25.6689 146.694 25.6689H152.035C152.083 25.6689 152.115 25.7009 152.115 25.7489V30.899C152.115 30.963 152.083 30.979 152.035 30.979H145.865C143.569 30.979 141.385 30.0354 139.296 28.164C137.288 26.0368 136.283 23.7496 136.283 21.3184V0.94167C136.299 0.877693 136.331 0.845703 136.363 0.845703Z" fill="#9A4B9C"/>
<path d="M173.431 0.845703H178.565C178.613 0.861697 178.645 0.893686 178.645 0.925675V10.8741H184.878C184.926 10.8901 184.958 10.9221 184.958 10.9541V16.1683C184.958 16.2323 184.926 16.2482 184.878 16.2482H178.645V20.0709C178.645 21.7503 178.932 22.9339 179.505 23.6056C180.43 24.9811 181.849 25.6689 183.762 25.6689H184.894C184.942 25.6689 184.974 25.7009 184.974 25.7489V30.899C184.974 30.963 184.942 30.979 184.894 30.979H182.949C180.653 30.979 178.469 30.0354 176.381 28.164C174.372 26.0368 173.367 23.7496 173.367 21.3184V0.94167C173.351 0.877693 173.383 0.845703 173.431 0.845703Z" fill="#9A4B9C"/>
<path d="M10.955 9.85082C13.0065 9.85082 14.6697 8.18233 14.6697 6.12414C14.6697 4.06595 13.0065 2.39746 10.955 2.39746C8.90337 2.39746 7.24023 4.06595 7.24023 6.12414C7.24023 8.18233 8.90337 9.85082 10.955 9.85082Z" fill="#9A4B9C"/>
<path d="M26.1327 9.85082C28.1843 9.85082 29.8474 8.18233 29.8474 6.12414C29.8474 4.06595 28.1843 2.39746 26.1327 2.39746C24.0811 2.39746 22.418 4.06595 22.418 6.12414C22.418 8.18233 24.0811 9.85082 26.1327 9.85082Z" fill="#9A4B9C"/>
<path d="M169.699 10.9863H171.532C171.58 11.0023 171.612 11.0343 171.612 11.0663V16.2165C171.612 16.2645 171.58 16.2964 171.532 16.2964H170.974C169.189 16.2964 167.993 16.5843 167.387 17.1761C166.032 18.0238 165.362 19.5913 165.362 21.8945C165.362 23.126 164.82 24.6775 163.736 26.5328C162.525 28.4201 160.643 29.7957 158.108 30.6434C157.2 30.8673 156.434 30.9792 155.797 30.9792H153.931C153.883 30.9792 153.852 30.9472 153.852 30.8993V25.7491C153.868 25.7011 153.899 25.6691 153.931 25.6691H154.92C157.263 25.6691 158.874 24.7095 159.735 22.7901C159.974 22.2303 160.101 21.2867 160.101 19.9432C160.324 18.1198 161.01 16.4084 162.174 14.825C163.609 13.0816 165.346 11.914 167.387 11.3222C168.264 11.0983 169.029 10.9863 169.699 10.9863Z" fill="#9A4B9C"/>
</g>
<defs>
<clipPath id="clip0_3994_15087">
<rect width="185" height="31" fill="white"/>
</clipPath>
</defs>
</svg>
