<svg width="160" height="160" viewBox="0 0 160 160" fill="none" xmlns="http://www.w3.org/2000/svg">
<rect width="160" height="160" rx="80" fill="#1E194F" fill-opacity="0.25"/>
<g clip-path="url(#clip0_3994_15074)">
<path d="M126.831 65.8786L81.8313 35.8786C81.215 35.4675 80.4908 35.248 79.75 35.248C79.0092 35.248 78.285 35.4675 77.6687 35.8786L32.6688 65.8786C32.1551 66.2213 31.7339 66.6856 31.4428 67.2302C31.1517 67.7749 30.9996 68.3829 31 69.0005V117.75C31 119.74 31.7902 121.647 33.1967 123.054C34.6032 124.46 36.5109 125.25 38.5 125.25H121C122.989 125.25 124.897 124.46 126.303 123.054C127.71 121.647 128.5 119.74 128.5 117.75V69.0005C128.5 68.3829 128.348 67.7749 128.057 67.2302C127.766 66.6856 127.345 66.2213 126.831 65.8786ZM65.0875 95.2505L38.5 114V76.2802L65.0875 95.2505ZM72.7609 99.0005H86.7391L113.284 117.75H46.2156L72.7609 99.0005ZM94.4125 95.2505L121 76.2802V114L94.4125 95.2505Z" fill="#1E194F"/>
</g>
<g clip-path="url(#clip1_3994_15074)">
<rect x="87" y="32" width="45" height="45" rx="22.5" fill="#1E194F"/>
<path d="M109.427 32.4043C105.061 32.4043 100.793 33.699 97.1626 36.1247C93.5323 38.5504 90.7028 41.9981 89.032 46.0318C87.3611 50.0656 86.924 54.5043 87.7757 58.7865C88.6275 63.0687 90.73 67.0022 93.8173 70.0895C96.9046 73.1768 100.838 75.2793 105.12 76.1311C109.403 76.9828 113.841 76.5457 117.875 74.8748C121.909 73.204 125.356 70.3745 127.782 66.7442C130.208 63.1139 131.503 58.8459 131.503 54.4798C131.496 48.6269 129.169 43.0155 125.03 38.8769C120.891 34.7383 115.28 32.4105 109.427 32.4043ZM119.119 50.5868L107.232 62.4736C107.075 62.6315 106.887 62.7568 106.681 62.8422C106.475 62.9277 106.254 62.9717 106.031 62.9717C105.808 62.9717 105.587 62.9277 105.381 62.8422C105.174 62.7568 104.987 62.6315 104.829 62.4736L99.7351 57.3793C99.4164 57.0607 99.2374 56.6285 99.2374 56.1779C99.2374 55.7273 99.4164 55.2951 99.7351 54.9765C100.054 54.6578 100.486 54.4788 100.936 54.4788C101.387 54.4788 101.819 54.6578 102.138 54.9765L106.031 58.8715L116.716 48.184C116.874 48.0262 117.061 47.9011 117.267 47.8157C117.474 47.7303 117.694 47.6864 117.918 47.6864C118.141 47.6864 118.362 47.7303 118.568 47.8157C118.774 47.9011 118.961 48.0262 119.119 48.184C119.277 48.3418 119.402 48.5291 119.487 48.7352C119.573 48.9414 119.617 49.1623 119.617 49.3854C119.617 49.6086 119.573 49.8295 119.487 50.0356C119.402 50.2418 119.277 50.4291 119.119 50.5868Z" fill="#9A4B9C"/>
</g>
<rect x="87.5" y="32.5" width="44" height="44" rx="22" stroke="#1E194F"/>
<rect x="1" y="1" width="158" height="158" rx="79" stroke="#1E194F" stroke-opacity="0.15" stroke-width="2"/>
<defs>
<clipPath id="clip0_3994_15074">
<rect width="98" height="91" fill="white" transform="translate(31 35)"/>
</clipPath>
<clipPath id="clip1_3994_15074">
<rect x="87" y="32" width="45" height="45" rx="22.5" fill="white"/>
</clipPath>
</defs>
</svg>
