<svg width="24" height="22" viewBox="0 0 24 22" fill="none" xmlns="http://www.w3.org/2000/svg">
<path d="M23.9622 1.34701C23.9515 1.1903 23.895 1.04021 23.7995 0.91545C23.7041 0.790687 23.5741 0.696773 23.4256 0.645417C23.2772 0.594062 23.1169 0.587538 22.9648 0.626659C22.8127 0.66578 22.6755 0.748814 22.5702 0.865409C22.0471 1.45222 21.3661 1.87603 20.6086 2.08621C19.5871 1.12992 18.2399 0.598454 16.8406 0.599809C16.097 0.600229 15.3608 0.747108 14.674 1.03206C13.9871 1.31701 13.3631 1.73445 12.8376 2.26055C12.3121 2.78665 11.8954 3.4111 11.6112 4.09826C11.3271 4.78541 11.181 5.52181 11.1814 6.26541V6.96941C6.39583 6.59981 3.83903 2.96301 3.14623 1.11981C3.0917 0.973742 2.99567 0.846792 2.86996 0.754568C2.74424 0.662344 2.59432 0.608865 2.43862 0.600706C2.28292 0.592547 2.12822 0.630063 1.99356 0.708643C1.85889 0.787223 1.75013 0.903441 1.68063 1.04301C0.00542717 4.39661 -0.252173 7.65101 0.965427 10.4222C2.03103 12.8494 4.17503 14.7822 7.21503 16.0638C5.83423 17.0414 3.50943 18.1998 0.799027 18.1998C0.62725 18.1996 0.459967 18.2547 0.321924 18.3569C0.183882 18.4592 0.0824123 18.6031 0.0325259 18.7675C-0.0173606 18.9319 -0.013014 19.1079 0.0449225 19.2696C0.102859 19.4313 0.211308 19.5701 0.354227 19.6654C2.95423 21.3998 5.67903 21.3998 8.21023 21.3998H8.28703C16.0646 21.3998 22.367 15.0862 22.367 7.30061V6.53421C22.9478 5.94221 23.4006 5.33901 23.679 4.55661C23.9878 3.68301 24.0502 2.67181 23.9622 1.34701Z" fill="white"/>
</svg>
